<svg width="38" height="38" viewBox="0 0 38 38" fill="none" xmlns="http://www.w3.org/2000/svg">
<g clip-path="url(#clip0)">
<path d="M14.8937 6.88816C14.8937 3.08393 11.5596 0 7.44684 0C3.33407 0 0 3.08393 0 6.88816V31.0658C0 34.87 3.33407 37.9539 7.44684 37.9539C11.5596 37.9539 14.8937 34.87 14.8937 31.0658V6.88816Z" fill="#0396FF"/>
<path d="M27.3928 19.6952L35.8188 11.9014C36.5105 11.2621 37.0592 10.503 37.4336 9.66744C37.808 8.8319 38.0007 7.93631 38.0007 7.03185C38.0007 6.1274 37.808 5.23181 37.4336 4.39627C37.0592 3.56073 36.5105 2.80162 35.8188 2.16233C35.1277 1.52253 34.307 1.01498 33.4037 0.668691C32.5004 0.322403 31.5322 0.144165 30.5543 0.144165C29.5765 0.144165 28.6083 0.322403 27.705 0.668691C26.8017 1.01498 25.981 1.52253 25.2899 2.16233L11.6006 14.8246C10.2412 16.0799 9.45926 17.7727 9.41816 19.549C9.37707 21.3252 10.0801 23.0474 11.3801 24.3553C11.4702 24.4474 11.5603 24.5373 11.6551 24.6251L23.9456 35.9825C24.6367 36.6223 25.4574 37.1299 26.3607 37.4762C27.264 37.8224 28.2323 38.0007 29.2101 38.0007C30.1879 38.0007 31.1561 37.8224 32.0594 37.4762C32.9627 37.1299 33.7834 36.6223 34.4745 35.9825C35.1663 35.343 35.7151 34.5838 36.0895 33.748C36.4639 32.9123 36.6566 32.0165 36.6566 31.1119C36.6566 30.2073 36.4639 29.3115 36.0895 28.4758C35.7151 27.6401 35.1663 26.8808 34.4745 26.2413L27.3928 19.6952Z" fill="#2BA7FF"/>
</g>
<defs>
<clipPath id="clip0">
<rect width="38" height="38" fill="white"/>
</clipPath>
</defs>
</svg>
